/* XPM */
static char *logo_64[] = {
/* columns rows colors chars-per-pixel */
"64 64 8 1 ",
"  c #007888",
". c #716AA6",
"X c #179DB4",
"o c #47BCC2",
"O c #B9DEE1",
"+ c white",
"@ c white",
"# c None",
/* pixels */
"#####################################..........................#",
"#######################      #######............................",
"####################          ######............................",
"##################            ######............................",
"################              ######............................",
"###############               ######............................",
"#############                 ######............................",
"############                  ######............................",
"###########                   ######............................",
"##########                    ######............................",
"#########                     ######............................",
"########                      ######............................",
"#######                       ######............................",
"######                        ######............................",
"######                        ######............................",
"#####                         ######............................",
"#####                         ######............................",
"#####                         ######............................",
"######                        ######............................",
"#########                     ######............................",
"###########                  #######............................",
"#############              #########............................",
"################          ##########............................",
"##XXX#############      ############............................",
"#XXXXXX##############  #############............................",
"#XXXXXXXXX##########################............................",
"#XXXXXXXXXXX########################............................",
"#XXXXXXXXXXXXXX######################..........................#",
"#XXXXXXXXXXXXXXXX###############################################",
"XXXXXXXXXXXXXXXXXXXX############################################",
"XXXXXXXXXXXXXXXXXXXXX###########################################",
"XXXXXXXXXXXXXXXXXXXXX###########################################",
"XXXXXXXXXXXXXXXXXXXXX###########################################",
"XXXXXXXXXXXXXXXXXXXXX###########################################",
"XXXXXXXXXXXXXXXXXXXXX#######################OOOOOOOOOOOOOOOOOO##",
"#XXXXXXXXXXXXXXXXXXXX######################OOOOOOOOOOOOOOOOOOOO#",
"#XXXXXXXXXXXXXXXXXXXXX#####################OOOOOOOOOOOOOOOOOOOO#",
"#XXXXXXXXXXXXXXXXXXXXX####################OOOOOOOOOOOOOOOOOOOOO#",
"#XXXXXXXXXXXXXXXXXXXXX###################OOOOOOOOOOOOOOOOOOOOOO#",
"#XXXXXXXXXXXXXXXXXXXX####################OOOOOOOOOOOOOOOOOOOOOO#",
"##XXXXXXXXXXXXXXXXXX####################OOOOOOOOOOOOOOOOOOOOOO##",
"##XXXXXXXXXXXXXXXXX####################OOOOOOOOOOOOOOOOOOOOOOO##",
"##XXXXXXXXXXXXXXXX#######ooo###########OOOOOOOOOOOOOOOOOOOOOOO##",
"###XXXXXXXXXXXXXX#######oooooooooo######OOOOOOOOOOOOOOOOOOOOO###",
"###XXXXXXXXXXXXX#######oooooooooooo#####OOOOOOOOOOOOOOOOOOOOO###",
"###XXXXXXXXXXXX#######ooooooooooooo#####OOOOOOOOOOOOOOOOOOOOO###",
"####XXXXXXXXXX#######oooooooooooooo######OOOOOOOOOOOOOOOOOOO####",
"#####XXXXXXXX#######oooooooooooooooo#####OOOOOOOOOOOOOOOOOOO####",
"#####XXXXXXX#######ooooooooooooooooo######OOOOOOOOOOOOOOOOO#####",
"######XXXXX#######ooooooooooooooooooo#####OOOOOOOOOOOOOOOO######",
"######XXXX#######oooooooooooooooooooo#####OOOOOOOOOOOOOOOO######",
"#######XX#######ooooooooooooooooooooo######OOOOOOOOOOOOOO#######",
"###############ooooooooooooooooooooooo#####OOOOOOOOOOOOO########",
"##############oooooooooooooooooooooooo######OOOOOOOOOOO#########",
"#############oooooooooooooooooooooooooo#####OOOOOOOOOO##########",
"############ooooooooooooooooooooooooooo######OOOOOOOO###########",
"############ooooooooooooooooooooooooooo######OOOOOOO############",
"#############ooooooooooooooooooooooooooo#####OOOOOO#############",
"###############ooooooooooooooooooooooooo######OOO###############",
"#################oooooooooooooooooooooooo#######################",
"##################ooooooooooooooooooooooo#######################",
"#####################oooooooooooooooooooo#######################",
"########################oooooooooooooooo########################",
"##############################oooo##############################"
};
